<?xml version="1.0" standalone="no"?>
<!DOCTYPE svg PUBLIC "-//W3C//DTD SVG 20010904//EN"
 "http://www.w3.org/TR/2001/REC-SVG-20010904/DTD/svg10.dtd">
<svg version="1.0" xmlns="http://www.w3.org/2000/svg"
 width="512.000000pt" height="512.000000pt" viewBox="0 0 512.000000 512.000000"
 preserveAspectRatio="xMidYMid meet">
<metadata>
Created by potrace 1.14, written by Peter Selinger 2001-2017
</metadata>
<g transform="translate(0.000000,512.000000) scale(0.100000,-0.100000)"
fill="#000000" stroke="none">
<path d="M2327 5014 c-1 -1 -38 -5 -82 -9 -70 -5 -114 -11 -240 -32 -207 -34
-498 -136 -708 -250 -225 -122 -397 -251 -582 -437 -290 -292 -488 -623 -608
-1016 -32 -105 -39 -129 -52 -198 -2 -13 -6 -31 -9 -40 -3 -9 -7 -33 -10 -52
-15 -114 -19 -137 -23 -155 -9 -40 -10 -422 -1 -510 12 -119 61 -361 94 -466
288 -920 1062 -1585 2004 -1719 169 -24 415 -30 560 -14 36 4 73 6 82 6 17 -1
17 2 -1 36 -23 47 -39 96 -47 147 -8 55 -10 56 -57 50 -54 -7 -341 -8 -387 -1
-19 3 -69 10 -110 16 -124 17 -140 20 -256 50 -604 155 -1122 575 -1412 1141
-112 219 -168 396 -217 674 -26 150 -26 451 0 645 29 222 117 492 227 700 355
672 1019 1118 1763 1185 117 10 429 4 475 -10 8 -2 39 -7 68 -10 180 -20 528
-135 685 -227 26 -15 50 -28 53 -28 6 0 198 -121 204 -130 3 -3 21 -17 40 -30
19 -13 37 -27 40 -30 3 -3 27 -23 55 -45 102 -82 265 -255 362 -385 169 -227
311 -534 372 -808 11 -46 22 -86 25 -89 3 -4 36 -1 73 6 74 13 118 19 145 20
19 1 19 4 -13 139 -24 101 -81 278 -110 341 -11 24 -29 65 -39 90 -51 130
-195 366 -317 519 -90 112 -283 308 -373 377 -36 27 -69 53 -75 57 -129 102
-358 234 -525 303 -114 47 -261 95 -375 121 -138 32 -129 31 -200 39 -33 4
-69 9 -80 11 -66 12 -408 27 -418 18z"/>
<path d="M2247 4524 c-2 -2 -21 -6 -43 -9 -267 -33 -554 -136 -793 -284 -310
-192 -587 -504 -739 -831 -152 -328 -209 -660 -179 -1030 24 -297 144 -634
320 -897 42 -62 81 -119 89 -127 7 -8 42 -48 78 -90 296 -346 748 -587 1225
-653 67 -9 421 -10 475 -1 19 3 46 6 60 7 16 1 33 13 48 35 90 132 279 242
455 263 l62 8 3 914 c1 676 5 917 14 922 6 4 36 11 67 15 31 4 58 8 61 9 3 1
30 5 60 9 30 5 64 10 75 12 11 3 36 7 55 10 19 3 85 14 145 24 61 10 187 30
280 45 213 33 315 51 321 57 2 3 -3 36 -12 74 -9 38 -17 77 -19 86 -10 50 -84
237 -133 337 -262 536 -760 927 -1341 1056 -41 9 -93 18 -115 21 -23 3 -66 9
-96 14 -51 8 -416 11 -423 4z m447 -125 c50 -9 98 -20 107 -24 17 -6 14 -21
-91 -475 -17 -74 -47 -205 -66 -290 -19 -85 -39 -157 -44 -160 -10 -6 -199 -5
-204 1 -3 4 -88 519 -102 614 -3 22 -11 76 -19 120 -8 44 -17 100 -20 125 -4
24 -9 48 -11 52 -3 5 7 13 23 19 98 40 279 48 427 18z m-87 -1125 c210 -43
393 -183 501 -381 73 -135 96 -341 57 -508 -62 -267 -305 -498 -570 -543 -52
-9 -240 -9 -285 0 -330 67 -574 359 -584 698 -13 474 415 830 881 734z"/>
<path d="M2355 3109 c-16 -5 -41 -11 -55 -14 -14 -2 -58 -21 -99 -41 -138 -68
-256 -216 -287 -359 -2 -11 -7 -31 -9 -45 -11 -48 -5 -166 10 -225 109 -422
627 -563 935 -255 106 106 161 239 161 389 0 303 -234 545 -536 555 -49 2
-103 -1 -120 -5z m218 -170 c81 -22 192 -112 231 -188 38 -73 49 -124 43 -214
-4 -72 -10 -99 -36 -151 -36 -73 -114 -151 -183 -183 -203 -95 -439 -9 -534
194 -49 104 -41 263 17 362 95 158 278 230 462 180z"/>
<path d="M4970 2850 c-58 -10 -121 -21 -140 -24 -19 -3 -48 -8 -65 -11 -41 -7
-582 -95 -625 -101 -19 -3 -57 -9 -85 -14 -27 -5 -68 -12 -90 -15 -22 -3 -51
-7 -65 -9 -37 -7 -211 -36 -240 -41 -14 -2 -44 -6 -67 -10 l-43 -7 0 -944 c0
-519 -1 -944 -3 -944 -1 0 -18 5 -37 10 -52 16 -176 13 -245 -5 -210 -55 -352
-226 -323 -389 17 -91 59 -145 149 -191 241 -124 591 7 652 245 10 39 14 218
16 763 1 391 3 755 4 807 l2 95 70 12 c39 6 144 26 235 43 91 17 176 33 190
35 14 1 77 13 140 25 63 12 124 24 135 25 128 23 204 37 278 51 48 9 90 14 93
11 6 -6 8 -1260 3 -1265 -2 -2 -26 -1 -54 4 -82 12 -146 11 -210 -3 -195 -44
-341 -186 -350 -340 -14 -229 266 -369 541 -270 120 44 199 109 246 205 l33
67 3 1102 2 1103 -22 -1 c-13 -1 -70 -9 -128 -19z"/>
</g>
</svg>
